<svg width="32" height="32" viewBox="0 0 32 32" fill="none" xmlns="http://www.w3.org/2000/svg">
<circle cx="16" cy="15.9999" r="16" fill="#9200E1"/>
<path d="M5.50999 20.8073C3.65457 18.5018 3.7838 15.0946 5.89715 12.9423C8.14854 10.6505 11.7981 10.6505 14.0495 12.9423C16.3003 15.2346 16.3003 18.9504 14.0495 21.2428C11.8666 23.4653 8.36859 23.5324 6.10631 21.4451L11.196 16.2624L11.8074 16.8849L8.69966 20.0495C9.86064 20.568 11.2645 20.3429 12.2148 19.3753C13.4532 18.1145 13.4532 16.0706 12.2148 14.8103C10.977 13.5494 8.96956 13.5494 7.73123 14.8103C6.63257 15.9289 6.50901 17.6648 7.36069 18.9225L5.50999 20.8073Z" fill="white"/>
<path d="M20.9224 18.2035V17.331H28.0595C27.9145 20.3255 25.5451 22.7243 22.5976 22.8515C19.2239 22.9974 16.4504 20.1296 16.6454 16.6986C16.8189 13.6453 19.387 11.2234 22.351 11.2234C25.3149 11.2234 27.7514 13.5192 28.0384 16.4585H25.4424C25.1741 14.9695 23.892 13.8413 22.351 13.8413C20.4099 13.8413 18.8797 15.6318 19.2683 17.6793C19.5088 18.9446 20.4878 19.9378 21.7322 20.1795C23.3223 20.4878 24.7534 19.5759 25.2803 18.2035H20.9224Z" fill="white"/>
</svg>
