<svg width="18" height="18" viewBox="0 0 18 18" fill="none" xmlns="http://www.w3.org/2000/svg">
<path d="M6.88953 1.83105C5.99483 1.83105 5.26953 2.55635 5.26953 3.45105V12.4511C5.26953 13.3457 5.99483 14.0711 6.88953 14.0711H13.007C13.9017 14.0711 14.627 13.3457 14.627 12.4511V5.23138C14.627 4.80172 14.4563 4.38968 14.1526 4.08586L12.3722 2.30553C12.0684 2.00173 11.6563 1.83105 11.2267 1.83105H6.88953Z" fill="white"/>
<path d="M3.64547 4.53125C3.9437 4.53125 4.18547 4.77302 4.18547 5.07125V12.8113C4.18547 14.1036 5.23312 15.1513 6.52547 15.1513H11.3855C11.6837 15.1513 11.9255 15.393 11.9255 15.6913C11.9255 15.9895 11.6837 16.2313 11.3855 16.2313H6.52547C4.63666 16.2313 3.10547 14.7 3.10547 12.8113V5.07125C3.10547 4.77302 3.34724 4.53125 3.64547 4.53125Z" fill="white"/>
</svg>
