<svg width="18" height="18" viewBox="0 0 18 18" fill="none" xmlns="http://www.w3.org/2000/svg">
<path d="M9.80945 2.79047C9.80945 2.34312 9.44679 1.98047 8.99945 1.98047C8.55212 1.98047 8.18945 2.34312 8.18945 2.79047V10.1617C8.18945 10.609 8.55212 10.9717 8.99945 10.9717C9.44679 10.9717 9.80945 10.609 9.80945 10.1617V2.79047Z" fill="white"/>
<path d="M2.4043 9.78443C2.4043 6.79854 4.38847 4.27555 7.11031 3.46289V5.17964C5.29949 5.9238 4.0243 7.70528 4.0243 9.78443C4.0243 12.5324 6.25201 14.7601 9.00002 14.7601C11.748 14.7601 13.9757 12.5324 13.9757 9.78443C13.9757 7.70557 12.7008 5.92421 10.8903 5.1799V3.46308C13.6118 4.27594 15.5957 6.79877 15.5957 9.78443C15.5957 13.427 12.6426 16.3801 9.00002 16.3801C5.35733 16.3801 2.4043 13.427 2.4043 9.78443Z" fill="white"/>
</svg>
